<?xml version="1.0" encoding="iso-8859-1"?>
<!-- Generator: Adobe Illustrator 19.0.0, SVG Export Plug-In . SVG Version: 6.00 Build 0)  -->
<svg version="1.1" id="Layer_1" xmlns="http://www.w3.org/2000/svg" xmlns:xlink="http://www.w3.org/1999/xlink" x="0px" y="0px"
	 viewBox="0 0 512 512" style="enable-background:new 0 0 512 512;" xml:space="preserve">
<polygon style="fill:#9BC9FF;" points="478.609,233.739 478.609,200.348 445.217,200.348 445.217,166.957 411.826,166.957 
	411.826,100.174 378.435,100.174 378.435,66.783 345.043,66.783 345.043,33.391 311.652,33.391 311.652,0 100.174,0 100.174,33.391 
	66.783,33.391 66.783,66.783 33.391,66.783 33.391,100.174 0,100.174 0,244.87 33.391,244.87 33.391,278.261 66.783,278.261 
	66.783,311.652 100.174,311.652 100.174,378.435 133.565,378.435 133.565,378.435 133.565,378.435 133.565,411.826 166.957,411.826 
	166.957,445.217 200.348,445.217 200.348,512 345.043,512 345.043,478.609 345.043,478.609 411.826,478.609 411.826,445.217 
	445.217,445.217 445.217,411.826 478.609,411.826 478.609,378.435 512,378.435 512,233.739 "/>
<g>
	<polygon style="fill:#FFFFFF;" points="100.174,0 100.174,33.391 66.783,33.391 66.783,66.783 33.391,66.783 33.391,100.174 
		0,100.174 0,133.565 66.783,133.565 66.783,100.174 100.174,100.174 100.174,66.783 133.565,66.783 133.565,0 	"/>
	<polygon style="fill:#FFFFFF;" points="512,233.739 478.609,233.739 478.609,200.348 445.217,200.348 445.217,166.957 
		411.826,166.957 411.826,133.565 200.348,133.565 200.348,166.957 166.957,166.957 166.957,200.348 133.565,200.348 
		133.565,233.739 100.174,233.739 100.174,378.435 133.565,378.435 133.565,411.826 166.957,411.826 166.957,445.217 
		200.348,445.217 200.348,512 345.043,512 345.043,478.609 411.826,478.609 411.826,445.217 445.217,445.217 445.217,411.826 
		478.609,411.826 478.609,378.435 512,378.435 	"/>
</g>
<rect x="66.783" y="33.391" width="33.391" height="33.391"/>
<rect x="311.652" y="33.391" width="33.391" height="33.391"/>
<polygon points="200.348,133.565 200.348,166.957 411.826,166.957 411.826,200.348 445.217,200.348 445.217,166.957 
	411.826,166.957 411.826,100.174 378.435,100.174 378.435,133.565 "/>
<polygon points="478.609,233.739 478.609,378.435 445.217,378.435 445.217,411.826 478.609,411.826 478.609,378.435 512,378.435 
	512,233.739 "/>
<polygon points="133.565,378.435 133.565,233.739 166.957,233.739 166.957,200.348 133.565,200.348 133.565,233.739 
	100.174,233.739 100.174,278.261 66.783,278.261 66.783,311.652 100.174,311.652 100.174,378.435 "/>
<rect x="445.217" y="200.348" width="33.391" height="33.391"/>
<polygon points="233.738,445.217 267.129,445.217 267.129,411.826 166.957,411.826 166.957,378.435 133.565,378.435 
	133.565,411.826 166.957,411.826 166.957,445.217 200.348,445.217 200.348,512 345.043,512 345.043,478.609 233.738,478.609 "/>
<rect x="166.957" y="166.957" width="33.391" height="33.391"/>
<polygon points="411.826,445.217 345.043,445.217 345.043,478.609 411.826,478.609 411.826,445.217 445.217,445.217 
	445.217,411.826 411.826,411.826 "/>
<rect x="100.174" width="211.478" height="33.391"/>
<rect x="33.391" y="66.783" width="33.391" height="33.391"/>
<rect x="345.043" y="66.783" width="33.391" height="33.391"/>
<polygon points="33.391,244.87 33.391,100.174 0,100.174 0,244.87 33.391,244.87 33.391,278.261 66.783,278.261 66.783,244.87 "/>
<g>
	<rect x="200.348" y="244.87" style="fill:#A5001E;" width="211.478" height="33.391"/>
	<rect x="200.348" y="311.652" style="fill:#A5001E;" width="144.696" height="33.391"/>
</g>
<g>
</g>
<g>
</g>
<g>
</g>
<g>
</g>
<g>
</g>
<g>
</g>
<g>
</g>
<g>
</g>
<g>
</g>
<g>
</g>
<g>
</g>
<g>
</g>
<g>
</g>
<g>
</g>
<g>
</g>
</svg>
