<?xml version="1.0" encoding="iso-8859-1"?>
<!-- Generator: Adobe Illustrator 19.0.0, SVG Export Plug-In . SVG Version: 6.00 Build 0)  -->
<svg version="1.1" id="Layer_1" xmlns="http://www.w3.org/2000/svg" xmlns:xlink="http://www.w3.org/1999/xlink" x="0px" y="0px"
	 viewBox="0 0 512 512" style="enable-background:new 0 0 512 512;" xml:space="preserve">
<polygon style="fill:#C70024;" points="89.043,0 89.043,33.391 55.652,33.391 55.652,66.783 22.261,66.783 22.261,100.174 
	55.652,100.174 55.652,133.565 89.043,133.565 89.043,200.348 55.652,200.348 55.652,233.739 22.261,233.739 22.261,267.13 
	55.652,267.13 55.652,300.522 89.043,300.522 89.043,378.435 55.652,378.435 55.652,411.826 22.261,411.826 22.261,445.217 
	55.652,445.217 55.652,478.609 89.043,478.609 89.043,512 489.739,512 489.739,0 "/>
<rect x="289.391" style="fill:#A5001E;" width="200.348" height="512"/>
<g>
	<polygon style="fill:#FFDA44;" points="55.652,33.391 55.652,66.783 22.261,66.783 22.261,100.174 55.652,100.174 55.652,133.565 
		122.435,133.565 122.435,33.391 	"/>
	<polygon style="fill:#FFDA44;" points="55.652,200.348 55.652,233.739 22.261,233.739 22.261,267.13 55.652,267.13 55.652,300.522 
		122.435,300.522 122.435,200.348 	"/>
	<polygon style="fill:#FFDA44;" points="55.652,378.435 55.652,411.826 22.261,411.826 22.261,445.217 55.652,445.217 
		55.652,478.609 122.435,478.609 122.435,378.435 	"/>
</g>
<path d="M89.043,0v33.391H55.652v33.391h33.391v33.391H55.652v33.391h33.391v66.783H55.652v33.391h33.391v33.391H55.652v33.391
	h33.391v77.913H55.652v33.391h33.391v33.391H55.652v33.391h33.391V512h400.696V0H89.043z M456.348,478.609H122.435V33.391h333.913
	V478.609z"/>
<rect x="22.261" y="66.783" width="33.391" height="33.391"/>
<rect x="22.261" y="233.739" width="33.391" height="33.391"/>
<rect x="22.261" y="411.826" width="33.391" height="33.391"/>
<polygon style="fill:#FFDA44;" points="356.174,133.565 356.174,100.174 222.609,100.174 222.609,133.565 189.217,133.565 
	189.217,267.13 222.609,267.13 222.609,300.522 256,300.522 256,333.913 222.609,333.913 222.609,367.304 189.217,367.304 
	189.217,411.826 389.565,411.826 389.565,367.304 356.174,367.304 356.174,333.913 322.783,333.913 322.783,300.522 
	356.174,300.522 356.174,267.13 389.565,267.13 389.565,133.565 "/>
<g>
</g>
<g>
</g>
<g>
</g>
<g>
</g>
<g>
</g>
<g>
</g>
<g>
</g>
<g>
</g>
<g>
</g>
<g>
</g>
<g>
</g>
<g>
</g>
<g>
</g>
<g>
</g>
<g>
</g>
</svg>
